<?xml version="1.0" encoding="utf-8"?>
<!-- Generator: Adobe Illustrator 26.0.3, SVG Export Plug-In . SVG Version: 6.00 Build 0)  -->
<svg version="1.0" id="katman_1" xmlns="http://www.w3.org/2000/svg" xmlns:xlink="http://www.w3.org/1999/xlink" x="0px" y="0px"
	 viewBox="0 0 600 450" style="enable-background:new 0 0 600 450;" xml:space="preserve">
<style type="text/css">
	.st0{filter:url(#Adobe_OpacityMaskFilter);}
	.st1{fill-rule:evenodd;clip-rule:evenodd;fill:#FFFFFF;}
	.st2{mask:url(#android-studio-b_00000180356091564842528320000013415311447817455531_);fill:#7CB340;}
	.st3{filter:url(#Adobe_OpacityMaskFilter_00000079455892410367757710000000202290351839130501_);}
	.st4{mask:url(#android-studio-d_00000021837096349009695900000015380099715754426032_);fill:#8CC04D;}
	.st5{filter:url(#Adobe_OpacityMaskFilter_00000058590446605364005400000016743551724470696616_);}
	
		.st6{opacity:0.2;mask:url(#android-studio-f_00000065063406294705841140000003835861089242155186_);fill:#FFFFFF;enable-background:new    ;}
	.st7{filter:url(#Adobe_OpacityMaskFilter_00000101101466358994468770000002628723008781795988_);}
	
		.st8{opacity:0.2;mask:url(#android-studio-h_00000030459527660240489910000018153696659698800540_);fill:#263239;enable-background:new    ;}
	.st9{filter:url(#Adobe_OpacityMaskFilter_00000086681232336334088580000007261307496543882668_);}
	.st10{mask:url(#android-studio-j_00000165206462086362891220000001241194992996785027_);}
	.st11{fill:#263239;fill-opacity:5.000000e-02;}
	.st12{fill:#FFFFFF;fill-opacity:5.000000e-02;}
	.st13{filter:url(#Adobe_OpacityMaskFilter_00000075847774853001747560000016906830359752720516_);}
	.st14{mask:url(#android-studio-l_00000155148835814363816580000012611630907253050284_);}
	.st15{fill:url(#SVGID_1_);}
	.st16{fill:url(#SVGID_00000122681859133526100820000004828811693786498703_);}
	.st17{filter:url(#Adobe_OpacityMaskFilter_00000088831471451535664830000006684695295259954364_);}
	.st18{mask:url(#android-studio-p_00000039840807061560369640000000346623680845469057_);}
	.st19{fill:#656564;}
	.st20{filter:url(#Adobe_OpacityMaskFilter_00000142177769248362311640000014425002814479163540_);}
	.st21{mask:url(#android-studio-r_00000104687439653772730940000017654441111118870197_);}
	.st22{fill:#E1E1E0;}
	.st23{fill:#FFFFFF;fill-opacity:0.4;}
	.st24{fill:#262626;fill-opacity:0.2;}
	.st25{fill:#F1F1F1;}
	.st26{fill:none;}
	.st27{opacity:0.2;fill:#FFFFFF;enable-background:new    ;}
	.st28{fill:#FFFFFF;fill-opacity:0.2;}
	.st29{opacity:0.2;fill:#262626;enable-background:new    ;}
	.st30{fill:url(#SVGID_00000018926078938478326510000007809177832464871312_);fill-opacity:0.1;}
	.st31{fill-rule:evenodd;clip-rule:evenodd;fill:#686868;}
</style>
<g>
	<g transform="translate(41.316 58)">
		<defs>
			<filter id="Adobe_OpacityMaskFilter" filterUnits="userSpaceOnUse" x="156.7" y="96.6" width="204.7" height="102.8">
				<feColorMatrix  type="matrix" values="1 0 0 0 0  0 1 0 0 0  0 0 1 0 0  0 0 0 1 0"/>
			</filter>
		</defs>
		
			<mask maskUnits="userSpaceOnUse" x="156.7" y="96.6" width="204.7" height="102.8" id="android-studio-b_00000180356091564842528320000013415311447817455531_">
			<g class="st0">
				<path id="android-studio-a_00000039111577968385291360000014686552805561052811_" class="st1" d="M340.2,304.3L325,277.9
					c22.2-18.9,36.4-47,36.4-78.5c0-56.7-45.9-102.8-102.4-102.8s-102.4,46.1-102.4,102.8c0,31.5,14.1,59.7,36.4,78.6l-15.3,26.4
					c-0.5,0.8-0.7,1.7-0.8,2.6l-1.3,17.3c-0.1,0.7,0.3,1.2,0.8,1.6c0.6,0.4,1.2,0.3,1.8-0.1l14.3-9.7c0.7-0.6,1.4-1.2,1.9-2l14.4-25
					c14.8,8.4,31.9,13.2,50.2,13.2c18.2,0,35.4-4.9,50.2-13.3l14.4,25c0.5,0.8,1.1,1.5,1.9,2l14.3,9.8c0.5,0.4,1.2,0.4,1.8,0.1
					c0.5-0.3,0.9-1,0.8-1.6l-1.3-17.3C341,306.1,340.8,305.2,340.2,304.3z"/>
			</g>
		</mask>
		<path class="st2" d="M259,96.6c-56.5,0-102.4,46.1-102.4,102.8h204.7C361.5,142.6,315.6,96.6,259,96.6L259,96.6z"/>
		<defs>
			
				<filter id="Adobe_OpacityMaskFilter_00000150094140257881275180000001169909281747142326_" filterUnits="userSpaceOnUse" x="156.7" y="199.4" width="204.7" height="102.8">
				<feColorMatrix  type="matrix" values="1 0 0 0 0  0 1 0 0 0  0 0 1 0 0  0 0 0 1 0"/>
			</filter>
		</defs>
		
			<mask maskUnits="userSpaceOnUse" x="156.7" y="199.4" width="204.7" height="102.8" id="android-studio-d_00000021837096349009695900000015380099715754426032_">
			<g style="filter:url(#Adobe_OpacityMaskFilter_00000150094140257881275180000001169909281747142326_);">
				<path id="android-studio-c_00000138534652293113488440000006443661114882552210_" class="st1" d="M340.2,304.3L325,277.9
					c22.2-18.9,36.4-47,36.4-78.5c0-56.7-45.9-102.8-102.4-102.8s-102.4,46.1-102.4,102.8c0,31.5,14.1,59.7,36.4,78.6l-15.3,26.4
					c-0.5,0.8-0.7,1.7-0.8,2.6l-1.3,17.3c-0.1,0.7,0.3,1.2,0.8,1.6c0.6,0.4,1.2,0.3,1.8-0.1l14.3-9.7c0.7-0.6,1.4-1.2,1.9-2l14.4-25
					c14.8,8.4,31.9,13.2,50.2,13.2c18.2,0,35.4-4.9,50.2-13.3l14.4,25c0.5,0.8,1.1,1.5,1.9,2l14.3,9.8c0.5,0.4,1.2,0.4,1.8,0.1
					c0.5-0.3,0.9-1,0.8-1.6l-1.3-17.3C341,306.1,340.8,305.2,340.2,304.3z"/>
			</g>
		</mask>
		<path class="st4" d="M259,199.4H156.7c0,56.7,45.9,102.8,102.4,102.8s102.4-46.1,102.4-102.8L259,199.4L259,199.4z"/>
		<defs>
			
				<filter id="Adobe_OpacityMaskFilter_00000069373879087298455880000017208350490196674995_" filterUnits="userSpaceOnUse" x="156.7" y="96.6" width="204.7" height="103.3">
				<feColorMatrix  type="matrix" values="1 0 0 0 0  0 1 0 0 0  0 0 1 0 0  0 0 0 1 0"/>
			</filter>
		</defs>
		
			<mask maskUnits="userSpaceOnUse" x="156.7" y="96.6" width="204.7" height="103.3" id="android-studio-f_00000065063406294705841140000003835861089242155186_">
			<g style="filter:url(#Adobe_OpacityMaskFilter_00000069373879087298455880000017208350490196674995_);">
				<path id="android-studio-e_00000022553159639976461130000014717209442623803539_" class="st1" d="M340.2,304.3L325,277.9
					c22.2-18.9,36.4-47,36.4-78.5c0-56.7-45.9-102.8-102.4-102.8s-102.4,46.1-102.4,102.8c0,31.5,14.1,59.7,36.4,78.6l-15.3,26.4
					c-0.5,0.8-0.7,1.7-0.8,2.6l-1.3,17.3c-0.1,0.7,0.3,1.2,0.8,1.6c0.6,0.4,1.2,0.3,1.8-0.1l14.3-9.7c0.7-0.6,1.4-1.2,1.9-2l14.4-25
					c14.8,8.4,31.9,13.2,50.2,13.2c18.2,0,35.4-4.9,50.2-13.3l14.4,25c0.5,0.8,1.1,1.5,1.9,2l14.3,9.8c0.5,0.4,1.2,0.4,1.8,0.1
					c0.5-0.3,0.9-1,0.8-1.6l-1.3-17.3C341,306.1,340.8,305.2,340.2,304.3z"/>
			</g>
		</mask>
		<path class="st6" d="M259,97.8c56.3,0,102.1,45.7,102.4,102.2v-0.6c0-56.7-45.9-102.8-102.4-102.8c-56.5-0.1-102.4,46-102.4,102.8
			v0.6C157,143.5,202.7,97.8,259,97.8L259,97.8z"/>
		<defs>
			
				<filter id="Adobe_OpacityMaskFilter_00000176727510559433986820000002633259067500914349_" filterUnits="userSpaceOnUse" x="156.7" y="198.8" width="204.7" height="103.3">
				<feColorMatrix  type="matrix" values="1 0 0 0 0  0 1 0 0 0  0 0 1 0 0  0 0 0 1 0"/>
			</filter>
		</defs>
		
			<mask maskUnits="userSpaceOnUse" x="156.7" y="198.8" width="204.7" height="103.3" id="android-studio-h_00000030459527660240489910000018153696659698800540_">
			<g style="filter:url(#Adobe_OpacityMaskFilter_00000176727510559433986820000002633259067500914349_);">
				<path id="android-studio-g_00000083806855482426798900000008696268200996146566_" class="st1" d="M340.2,304.3L325,277.9
					c22.2-18.9,36.4-47,36.4-78.5c0-56.7-45.9-102.8-102.4-102.8s-102.4,46.1-102.4,102.8c0,31.5,14.1,59.7,36.4,78.6l-15.3,26.4
					c-0.5,0.8-0.7,1.7-0.8,2.6l-1.3,17.3c-0.1,0.7,0.3,1.2,0.8,1.6c0.6,0.4,1.2,0.3,1.8-0.1l14.3-9.7c0.7-0.6,1.4-1.2,1.9-2l14.4-25
					c14.8,8.4,31.9,13.2,50.2,13.2c18.2,0,35.4-4.9,50.2-13.3l14.4,25c0.5,0.8,1.1,1.5,1.9,2l14.3,9.8c0.5,0.4,1.2,0.4,1.8,0.1
					c0.5-0.3,0.9-1,0.8-1.6l-1.3-17.3C341,306.1,340.8,305.2,340.2,304.3z"/>
			</g>
		</mask>
		<path class="st8" d="M259,301c-56.3,0-102.1-45.7-102.4-102.2v0.6c0,56.7,45.9,102.8,102.4,102.8S361.4,256,361.4,199.3v-0.6
			C361.1,255.3,315.4,301,259,301L259,301z"/>
		<defs>
			
				<filter id="Adobe_OpacityMaskFilter_00000131350349525929286580000010025208575216189594_" filterUnits="userSpaceOnUse" x="144.7" y="198.2" width="228.5" height="2.4">
				<feColorMatrix  type="matrix" values="1 0 0 0 0  0 1 0 0 0  0 0 1 0 0  0 0 0 1 0"/>
			</filter>
		</defs>
		
			<mask maskUnits="userSpaceOnUse" x="144.7" y="198.2" width="228.5" height="2.4" id="android-studio-j_00000165206462086362891220000001241194992996785027_">
			<g style="filter:url(#Adobe_OpacityMaskFilter_00000131350349525929286580000010025208575216189594_);">
				<path id="android-studio-i_00000122712620038251462130000002039729823490918070_" class="st1" d="M340.2,304.3L325,277.9
					c22.2-18.9,36.4-47,36.4-78.5c0-56.7-45.9-102.8-102.4-102.8s-102.4,46.1-102.4,102.8c0,31.5,14.1,59.7,36.4,78.6l-15.3,26.4
					c-0.5,0.8-0.7,1.7-0.8,2.6l-1.3,17.3c-0.1,0.7,0.3,1.2,0.8,1.6c0.6,0.4,1.2,0.3,1.8-0.1l14.3-9.7c0.7-0.6,1.4-1.2,1.9-2l14.4-25
					c14.8,8.4,31.9,13.2,50.2,13.2c18.2,0,35.4-4.9,50.2-13.3l14.4,25c0.5,0.8,1.1,1.5,1.9,2l14.3,9.8c0.5,0.4,1.2,0.4,1.8,0.1
					c0.5-0.3,0.9-1,0.8-1.6l-1.3-17.3C341,306.1,340.8,305.2,340.2,304.3z"/>
			</g>
		</mask>
		<g class="st10">
			<path class="st11" d="M144.7,198.2h228.5v1.2H144.7V198.2z"/>
			<path class="st12" d="M144.7,199.4h228.5v1.2H144.7V199.4z"/>
		</g>
		<defs>
			
				<filter id="Adobe_OpacityMaskFilter_00000096755846441237981380000013189303272738233220_" filterUnits="userSpaceOnUse" x="193" y="142.1" width="165.3" height="160.3">
				<feColorMatrix  type="matrix" values="1 0 0 0 0  0 1 0 0 0  0 0 1 0 0  0 0 0 1 0"/>
			</filter>
		</defs>
		
			<mask maskUnits="userSpaceOnUse" x="193" y="142.1" width="165.3" height="160.3" id="android-studio-l_00000155148835814363816580000012611630907253050284_">
			<g style="filter:url(#Adobe_OpacityMaskFilter_00000096755846441237981380000013189303272738233220_);">
				<path id="android-studio-k_00000092455037832603571900000012298331764391392901_" class="st1" d="M340.2,304.3L325,277.9
					c22.2-18.9,36.4-47,36.4-78.5c0-56.7-45.9-102.8-102.4-102.8s-102.4,46.1-102.4,102.8c0,31.5,14.1,59.7,36.4,78.6l-15.3,26.4
					c-0.5,0.8-0.7,1.7-0.8,2.6l-1.3,17.3c-0.1,0.7,0.3,1.2,0.8,1.6c0.6,0.4,1.2,0.3,1.8-0.1l14.3-9.7c0.7-0.6,1.4-1.2,1.9-2l14.4-25
					c14.8,8.4,31.9,13.2,50.2,13.2c18.2,0,35.4-4.9,50.2-13.3l14.4,25c0.5,0.8,1.1,1.5,1.9,2l14.3,9.8c0.5,0.4,1.2,0.4,1.8,0.1
					c0.5-0.3,0.9-1,0.8-1.6l-1.3-17.3C341,306.1,340.8,305.2,340.2,304.3z"/>
			</g>
		</mask>
		<g class="st14">
			
				<linearGradient id="SVGID_1_" gradientUnits="userSpaceOnUse" x1="-36.7639" y1="390.2611" x2="-35.4437" y2="388.8947" gradientTransform="matrix(86.283 0 0 -83.707 3377.9783 32849.0664)">
				<stop  offset="0.33" style="stop-color:#263239;stop-opacity:0.16"/>
				<stop  offset="1" style="stop-color:#263239;stop-opacity:0"/>
			</linearGradient>
			<path class="st15" d="M332.8,199.6v-0.2h-4.7l-57.1-57.4h-23.7v19.2h-6c-5.9,0-10.7,4.9-10.7,10.7v24.4h0.1
				c-0.1,0.8,0.5,1.9,1.6,3.1c0.1,0.1,0.1,0.1,0.1,0.2l3.7,3.7L193,278.1c4.9,4.2,10.2,7.8,15.8,11c14.9,8.4,31.9,13.3,50.2,13.3
				c18.2,0,35.4-4.9,50.2-13.3c5.6-3.2,10.9-6.9,15.8-11c15.3-13,26.4-30.1,32.1-49.3c0.4-1.2,0.7-2.4,1-3.5L332.8,199.6z"/>
			
				<linearGradient id="SVGID_00000083806386734351849630000002162363904457483148_" gradientUnits="userSpaceOnUse" x1="-37.0691" y1="389.4239" x2="-35.9928" y2="389.819" gradientTransform="matrix(86.283 0 0 -83.707 3377.9783 32849.0664)">
				<stop  offset="0.33" style="stop-color:#263239;stop-opacity:0.16"/>
				<stop  offset="1" style="stop-color:#263239;stop-opacity:0"/>
			</linearGradient>
			<path style="fill:url(#SVGID_00000083806386734351849630000002162363904457483148_);" d="M332.8,199.6v-0.2h-4.7l-57.1-57.4
				h-23.7v19.2h-6c-5.9,0-10.7,4.9-10.7,10.7v24.4h0.1c-0.1,0.8,0.5,1.9,1.6,3.1c0.1,0.1,0.1,0.1,0.1,0.2l3.7,3.7L193,278.1
				c4.9,4.2,10.2,7.8,15.8,11c14.9,8.4,31.9,13.3,50.2,13.3c18.2,0,35.4-4.9,50.2-13.3c5.6-3.2,10.9-6.9,15.8-11
				c15.3-13,26.4-30.1,32.1-49.3c0.4-1.2,0.7-2.4,1-3.5L332.8,199.6z"/>
		</g>
		<defs>
			
				<filter id="Adobe_OpacityMaskFilter_00000066491489810278412820000008145227644804488852_" filterUnits="userSpaceOnUse" x="173.8" y="140.1" width="172.4" height="189.4">
				<feColorMatrix  type="matrix" values="1 0 0 0 0  0 1 0 0 0  0 0 1 0 0  0 0 0 1 0"/>
			</filter>
		</defs>
		
			<mask maskUnits="userSpaceOnUse" x="173.8" y="140.1" width="172.4" height="189.4" id="android-studio-p_00000039840807061560369640000000346623680845469057_">
			<g style="filter:url(#Adobe_OpacityMaskFilter_00000066491489810278412820000008145227644804488852_);">
				<path id="android-studio-o_00000110436049514461130690000016742887109914568579_" class="st1" d="M340.2,304.3L325,277.9
					c22.2-18.9,36.4-47,36.4-78.5c0-56.7-45.9-102.8-102.4-102.8s-102.4,46.1-102.4,102.8c0,31.5,14.1,59.7,36.4,78.6l-15.3,26.4
					c-0.5,0.8-0.7,1.7-0.8,2.6l-1.3,17.3c-0.1,0.7,0.3,1.2,0.8,1.6c0.6,0.4,1.2,0.3,1.8-0.1l14.3-9.7c0.7-0.6,1.4-1.2,1.9-2l14.4-25
					c14.8,8.4,31.9,13.2,50.2,13.2c18.2,0,35.4-4.9,50.2-13.3l14.4,25c0.5,0.8,1.1,1.5,1.9,2l14.3,9.8c0.5,0.4,1.2,0.4,1.8,0.1
					c0.5-0.3,0.9-1,0.8-1.6l-1.3-17.3C341,306.1,340.8,305.2,340.2,304.3z"/>
			</g>
		</mask>
		<g class="st18">
			<g transform="translate(9.23 22.439)">
				<g style="opacity:0.2;enable-background:new    ;">
					
						<image style="overflow:visible;" width="364" height="400" xlink:href="3F81DF4E.png"  transform="matrix(0.4735 0 0 0.4735 164.5879 117.6301)">
					</image>
				</g>
				<path class="st19" d="M331.9,284.6c-0.1-0.9-0.4-1.8-0.8-2.6l-29.8-51.9c13.8-13.5,22.4-32.3,22.4-53.2h-19.1
					c0,13.6-5,26.2-13.3,35.9l-18.4-32l3.7-3.7c1.2-1.2,1.7-2.3,1.7-3.2h0.1v-24.4c0-5.9-4.8-10.7-10.7-10.7h-6v-19.2H238v19.2h-6
					c-5.9,0-10.7,4.9-10.7,10.7V174h0.1c-0.1,0.9,0.5,2,1.7,3.2l3.7,3.7l-58.2,101c-0.5,0.8-0.7,1.7-0.8,2.6l-1.3,17.4
					c-0.1,0.7,0.3,1.2,0.8,1.6c0.6,0.4,1.2,0.3,1.8-0.1l14.3-9.7c0.7-0.6,1.4-1.2,1.9-2l28.8-50c11,6.2,23.3,9.4,35.9,9.4
					c12.6,0,25-3.2,35.9-9.4l28.8,49.9c0.5,0.8,1.1,1.5,1.9,2l14.3,9.8c0.5,0.4,1.2,0.4,1.8,0.1c0.5-0.3,0.9-1,0.8-1.6L331.9,284.6
					L331.9,284.6z M249.8,148.3v-0.2V148.3c7.9,0.1,14.3,6.4,14.3,14.4c0,7.9-6.4,14.3-14.2,14.4h-0.1c-7.8,0-14.2-6.4-14.2-14.4
					C235.5,154.7,241.9,148.3,249.8,148.3L249.8,148.3z M249.8,231.9c-9.2,0-18.3-2.3-26.3-6.8l17.3-30.1l3.6,3.6
					c1.4,1.4,3.3,2.2,5.3,2.2v-0.1l0.1,0.1c2,0,3.9-0.7,5.3-2.2l3.6-3.6l17.3,30.2C268.4,229.5,259.4,231.9,249.8,231.9L249.8,231.9
					z"/>
			</g>
		</g>
		<defs>
			
				<filter id="Adobe_OpacityMaskFilter_00000119811710381441759150000012342321943760295077_" filterUnits="userSpaceOnUse" x="175.6" y="142" width="166.9" height="184.3">
				<feColorMatrix  type="matrix" values="1 0 0 0 0  0 1 0 0 0  0 0 1 0 0  0 0 0 1 0"/>
			</filter>
		</defs>
		
			<mask maskUnits="userSpaceOnUse" x="175.6" y="142" width="166.9" height="184.3" id="android-studio-r_00000104687439653772730940000017654441111118870197_">
			<g style="filter:url(#Adobe_OpacityMaskFilter_00000119811710381441759150000012342321943760295077_);">
				<path id="android-studio-q_00000039839237832934703220000008248075689105176482_" class="st1" d="M340.2,304.3L325,277.9
					c22.2-18.9,36.4-47,36.4-78.5c0-56.7-45.9-102.8-102.4-102.8s-102.4,46.1-102.4,102.8c0,31.5,14.1,59.7,36.4,78.6l-15.3,26.4
					c-0.5,0.8-0.7,1.7-0.8,2.6l-1.3,17.3c-0.1,0.7,0.3,1.2,0.8,1.6c0.6,0.4,1.2,0.3,1.8-0.1l14.3-9.7c0.7-0.6,1.4-1.2,1.9-2l14.4-25
					c14.8,8.4,31.9,13.2,50.2,13.2c18.2,0,35.4-4.9,50.2-13.3l14.4,25c0.5,0.8,1.1,1.5,1.9,2l14.3,9.8c0.5,0.4,1.2,0.4,1.8,0.1
					c0.5-0.3,0.9-1,0.8-1.6l-1.3-17.3C341,306.1,340.8,305.2,340.2,304.3z"/>
			</g>
		</mask>
		<g class="st21">
			<path class="st22" d="M341.1,307.1c-0.1-0.9-0.4-1.8-0.8-2.6l-29.8-51.9l-9.9-17.3l-18.4-32l-14.1,14.1l17.3,30.2l9.5,16.5
				l28.8,49.9c0.5,0.8,1.1,1.5,1.9,2l14.3,9.8c0.5,0.4,1.2,0.4,1.8,0.1c0.5-0.3,0.9-1,0.8-1.6L341.1,307.1L341.1,307.1z"/>
			<path class="st23" d="M300.5,236.4l9.9,17.3l29.9,51.9c0.5,0.8,0.7,1.7,0.8,2.6l1.2,16.4c0-0.1,0.1-0.2,0.1-0.4l-1.3-17.3
				c-0.1-0.9-0.4-1.8-0.8-2.6l-29.8-51.9l-9.9-17.3l-18.4-32l-0.6,0.7L300.5,236.4z"/>
			<path class="st24" d="M341.6,324.6c-0.6,0.4-1.2,0.3-1.8-0.1l-14.3-9.8c-0.7-0.5-1.4-1.2-1.9-2l-28.8-49.9l-9.5-16.5L268.6,217
				l-0.5,0.5l17.3,30.2l9.5,16.5l28.8,49.9c0.5,0.8,1.1,1.5,1.9,2l14.3,9.8c0.5,0.4,1.2,0.4,1.8,0.1c0.5-0.3,0.9-1,0.8-1.6l-0.1-0.8
				C342.2,324,342,324.4,341.6,324.6z"/>
			<path class="st25" d="M313.8,199.4c0,13.6-5,26.2-13.3,35.9c-4.3,5-9.3,9.2-15.1,12.3c-7.8,4.4-16.8,6.8-26.4,6.8
				c-9.2,0-18.3-2.3-26.3-6.8l17.3-30.2l-14.1-14.1l-58.2,101.1c-0.5,0.8-0.7,1.7-0.8,2.6l-1.3,17.4c-0.1,0.7,0.3,1.2,0.8,1.6
				c0.6,0.4,1.2,0.3,1.8-0.1l14.3-9.7c0.7-0.6,1.4-1.2,1.9-2l28.8-50c11,6.2,23.3,9.4,35.9,9.4c12.6,0,25-3.2,35.9-9.4
				c5.6-3.2,10.8-7.1,15.4-11.6c13.8-13.5,22.4-32.3,22.4-53.2L313.8,199.4L313.8,199.4z"/>
			<path class="st26" d="M264.4,221.1c-1.4,1.4-3.3,2.2-5.3,2.2l-0.1-0.1v0.1c-2,0-3.9-0.7-5.3-2.2l-3.6-3.6l-17.3,30.1
				c7.8,4.4,16.8,6.8,26.3,6.8c9.5,0,18.6-2.5,26.4-6.8l-17.3-30.2L264.4,221.1L264.4,221.1z"/>
			<g>
				<path class="st23" d="M177.8,305.6l58.8-101.7l-0.7-0.6l-58.2,101.1c-0.5,0.8-0.7,1.7-0.8,2.6l-1.3,17.4c0,0.1,0.1,0.2,0.1,0.4
					l1.2-16.4C177.1,307.3,177.3,306.4,177.8,305.6z M259,255.6c9.6,0,18.6-2.5,26.4-6.8c5.7-3.2,10.8-7.4,15.1-12.3
					c8.6-10,13.3-22.7,13.3-35.9h19c0-0.4,0.1-0.8,0.1-1.2h-19.1c0,13.6-5,26.2-13.3,35.9c-4.3,5-9.3,9.2-15.1,12.3
					c-7.8,4.4-16.8,6.8-26.4,6.8c-9.4,0-18.1-2.4-25.9-6.6l-0.6,0.9C240.5,253.1,249.5,255.6,259,255.6L259,255.6z"/>
				<path class="st24" d="M232.7,247.4l17.3-30l-0.5-0.5l-17.4,30.2L232.7,247.4L232.7,247.4z M310.5,251.3
					c-4.7,4.5-9.8,8.4-15.4,11.6c-11,6.2-23.3,9.4-35.9,9.4c-12.6,0-25-3.2-35.9-9.4l-28.8,50c-0.5,0.8-1.1,1.5-1.9,2l-14.3,9.7
					c-0.5,0.4-1.2,0.4-1.8,0.1c-0.5-0.3-0.7-0.7-0.7-1.2l-0.1,0.8c-0.1,0.7,0.3,1.2,0.8,1.6c0.6,0.3,1.2,0.3,1.8-0.1l14.3-9.7
					c0.7-0.6,1.4-1.2,1.9-2l28.8-50c11,6.2,23.3,9.4,35.9,9.4c12.6,0,25-3.2,35.9-9.4c5.6-3.2,10.8-7.1,15.4-11.6
					c13.8-13.5,22.4-32.3,22.4-53.2h-0.1C332.5,219.7,324,238.1,310.5,251.3z"/>
			</g>
			<path class="st19" d="M276.9,161.2h-6V142h-23.7v19.2h-6.1c-5.9,0-10.7,4.9-10.7,10.7v24.4h0.1c-0.1,0.9,0.5,2,1.7,3.2l21.5,21.6
				c1.4,1.4,3.3,2.2,5.3,2.2v-0.1l0.1,0.1c2,0,3.9-0.7,5.3-2.2l21.5-21.6c1.2-1.2,1.7-2.3,1.7-3.2h0.1V172
				C287.6,166.1,282.8,161.2,276.9,161.2z M259.1,199.4L259.1,199.4c-7.9,0-14.3-6.4-14.3-14.4c0-7.9,6.4-14.4,14.2-14.4v-0.2
				l0.1,0.2c7.8,0.1,14.2,6.4,14.2,14.4S266.9,199.3,259.1,199.4L259.1,199.4z"/>
			<path class="st27" d="M270.9,143.2V142h-23.7v1.2H259H270.9z"/>
			<path class="st28" d="M259.1,198.2L259.1,198.2c-7.7,0-14-6.2-14.3-13.7c0,0.2-0.1,0.4-0.1,0.6c0,7.8,6.4,14.4,14.2,14.4h0.1
				c7.8-0.1,14.2-6.4,14.2-14.4c0-0.2,0-0.4-0.1-0.6C273,192,266.7,198.1,259.1,198.2z"/>
			<path class="st27" d="M241.2,162.4h6v-1.2h-6c-5.9,0-10.7,4.9-10.7,10.7v1.2C230.4,167.3,235.3,162.4,241.2,162.4z M276.9,161.2
				h-6v1.2h6c5.9,0,10.7,4.9,10.7,10.7V172C287.6,166.1,282.8,161.2,276.9,161.2z"/>
			<path class="st29" d="M259.1,170.7l-0.1-0.2L259.1,170.7c-7.9,0-14.3,6.4-14.3,14.4c0,0.2,0,0.4,0.1,0.6
				c0.4-7.7,6.6-13.7,14.2-13.7v-0.2l0.1,0.2c7.6,0.1,13.9,6.2,14.1,13.7c0-0.2,0.1-0.4,0.1-0.6
				C273.3,177.2,266.9,170.7,259.1,170.7z"/>
			<path class="st24" d="M285.9,198.4L264.4,220c-1.4,1.4-3.3,2.2-5.3,2.2l-0.1-0.1v0.1c-2,0-3.9-0.7-5.3-2.2l-21.5-21.6
				c-1.2-1.2-1.7-2.3-1.7-3.2h-0.1v1.2h0.1c-0.1,0.9,0.5,2,1.7,3.2l21.5,21.5c1.4,1.4,3.3,2.2,5.3,2.2v-0.1l0.1,0.1
				c2,0,3.9-0.7,5.3-2.2l21.5-21.6c1.2-1.2,1.7-2.3,1.7-3.2h0.1v-1.2h-0.1C287.6,196.1,287.1,197.2,285.9,198.4z"/>
			<path class="st26" d="M259,199.4L259,199.4c7.9-0.1,14.3-6.4,14.3-14.4c0-7.9-6.4-14.3-14.2-14.4l-0.1-0.2v0.2
				c-7.8,0-14.2,6.4-14.2,14.4S251.1,199.4,259,199.4z"/>
		</g>
	</g>
	
		<radialGradient id="SVGID_00000080889752623723066530000010151926275277798585_" cx="3.8676" cy="449.2881" r="9.2437" gradientTransform="matrix(106.882 0 0 -119.8319 -185.1699 54030.7148)" gradientUnits="userSpaceOnUse">
		<stop  offset="0" style="stop-color:#FFFFFF"/>
		<stop  offset="1" style="stop-color:#FFFFFF;stop-opacity:0"/>
	</radialGradient>
	<path style="fill:url(#SVGID_00000080889752623723066530000010151926275277798585_);fill-opacity:0.1;" d="M381.6,362.3l-15.3-26.4
		c22.2-18.9,36.4-47,36.4-78.5c0-56.7-45.9-102.8-102.4-102.8S198,200.7,198,257.4c0,31.5,14.1,59.7,36.4,78.6l-15.3,26.4
		c-0.5,0.8-0.7,1.7-0.8,2.6l-1.3,17.3c-0.1,0.7,0.3,1.2,0.8,1.6c0.6,0.4,1.2,0.3,1.8-0.1l14.3-9.7c0.7-0.6,1.4-1.2,1.9-2l14.4-25
		c14.8,8.4,31.9,13.2,50.2,13.2c18.2,0,35.4-4.9,50.2-13.3l14.4,25c0.5,0.8,1.1,1.5,1.9,2l14.3,9.8c0.5,0.4,1.2,0.4,1.8,0.1
		c0.5-0.3,0.9-1,0.8-1.6l-1.3-17.3C382.3,364.1,382.1,363.2,381.6,362.3z"/>
	<path class="st26" d="M186.1,154.6h228.5v229.5H186.1V154.6z"/>
	<path class="st31" d="M144.2,94.4h-16.5l-3.7,10.2h-5.5l15.3-39.5h4.6l15,39.5h-5.5C147.9,104.6,144.2,94.4,144.2,94.4z
		 M129.3,89.9h13.3l-6.5-18H136L129.3,89.9z M162.6,75.2l0.4,4.4c1-1.6,2.2-2.8,3.7-3.6c1.5-0.9,3.2-1.3,5-1.3
		c3.2,0,5.6,0.9,7.3,2.8c1.7,1.9,2.6,4.7,2.6,8.6v18.5h-5.3V86.2c0-2.6-0.5-4.4-1.5-5.5c-1-1.1-2.6-1.6-4.7-1.6
		c-1.5,0-2.9,0.4-4.1,1.1c-1.2,0.8-2.2,1.8-2.8,3v21.4h-5.3V75.2C157.8,75.2,162.6,75.2,162.6,75.2z M188.1,90.4c0-4.7,1-8.5,3-11.4
		c2-2.9,4.8-4.3,8.5-4.3c1.7,0,3.2,0.3,4.6,0.9c1.3,0.6,2.5,1.6,3.4,2.8V62.3h5.3v42.3h-4.4L208,101c-1,1.4-2.1,2.4-3.5,3.1
		c-1.4,0.7-3,1.1-4.9,1.1c-3.6,0-6.4-1.3-8.4-3.9c-2-2.6-3-6-3-10.2C188.1,91,188.1,90.4,188.1,90.4z M193.5,91c0,3,0.6,5.3,1.8,7.1
		c1.2,1.8,3.1,2.7,5.6,2.7c1.6,0,2.9-0.4,4-1.1c1.1-0.7,2-1.7,2.7-3V83c-0.6-1.2-1.6-2.2-2.7-2.9c-1.1-0.7-2.4-1.1-3.9-1.1
		c-2.6,0-4.5,1.1-5.7,3.2c-1.2,2.1-1.8,4.9-1.8,8.2L193.5,91L193.5,91z M234.8,79.9l-2.7-0.2c-1.4,0-2.6,0.3-3.6,1
		c-1,0.7-1.7,1.6-2.2,2.8v21h-5.3V75.2h4.8l0.5,4.3c0.8-1.5,1.9-2.7,3.1-3.6c1.2-0.9,2.6-1.3,4.2-1.3c0.7,0,1.4,0.1,2,0.3
		L234.8,79.9L234.8,79.9z M238.7,89.6c0-4.3,1.2-7.9,3.5-10.7c2.4-2.8,5.5-4.2,9.6-4.2c4.1,0,7.3,1.4,9.6,4.2
		c2.4,2.8,3.5,6.4,3.5,10.7v0.6c0,4.4-1.2,8-3.5,10.7c-2.4,2.8-5.6,4.2-9.6,4.2c-4,0-7.3-1.4-9.6-4.2c-2.4-2.8-3.5-6.4-3.5-10.7
		C238.7,90.2,238.7,89.6,238.7,89.6z M244.1,90.2c0,3.1,0.7,5.7,2,7.7c1.3,2,3.3,3,5.8,3c2.5,0,4.5-1,5.8-3c1.3-2,2-4.6,2-7.7v-0.6
		c0-3.1-0.7-5.6-2-7.7c-1.3-2-3.3-3.1-5.8-3.1c-2.5,0-4.5,1-5.8,3.1c-1.3,2-2,4.6-2,7.7L244.1,90.2L244.1,90.2z M277.3,104.6H272
		V75.2h5.3V104.6z M277.3,67.7H272v-5.5h5.3C277.3,62.3,277.3,67.7,277.3,67.7z M284.3,90.4c0-4.7,1-8.5,3-11.4
		c2-2.9,4.8-4.3,8.5-4.3c1.7,0,3.2,0.3,4.6,0.9c1.3,0.6,2.5,1.6,3.4,2.8V62.3h5.3v42.3h-4.4l-0.6-3.6c-1,1.4-2.1,2.4-3.5,3.1
		c-1.4,0.7-3,1.1-4.9,1.1c-3.6,0-6.4-1.3-8.4-3.9c-2-2.6-3-6-3-10.2L284.3,90.4L284.3,90.4z M289.7,91c0,3,0.6,5.3,1.8,7.1
		c1.2,1.8,3.1,2.7,5.6,2.7c1.6,0,2.9-0.4,4-1.1c1.1-0.7,2-1.7,2.7-3V83c-0.6-1.2-1.6-2.2-2.7-2.9c-1.1-0.7-2.4-1.1-3.9-1.1
		c-2.6,0-4.5,1.1-5.7,3.2c-1.2,2.1-1.8,4.9-1.8,8.2L289.7,91L289.7,91z M354.8,94.9c0-2.2-0.8-3.9-2.4-5.3c-1.6-1.4-4.4-2.6-8.4-3.6
		c-4.3-1.1-7.6-2.5-9.8-4.2c-2.2-1.7-3.3-4.1-3.3-7c0-3,1.2-5.5,3.7-7.4c2.5-1.9,5.7-2.8,9.6-2.8c4.1,0,7.4,1.1,9.8,3.4
		c2.5,2.3,3.7,5,3.6,8.3l-0.1,0.2h-3c0-2.6-0.9-4.8-2.8-6.5c-1.9-1.7-4.4-2.5-7.6-2.5c-3.2,0-5.6,0.7-7.4,2.1
		c-1.8,1.4-2.7,3.2-2.7,5.3c0,2,0.8,3.6,2.5,5c1.6,1.3,4.5,2.5,8.5,3.5c4.2,1.1,7.5,2.6,9.7,4.4c2.2,1.8,3.3,4.3,3.3,7.3
		c0,3.1-1.3,5.7-3.9,7.5c-2.6,1.9-5.9,2.8-9.9,2.8c-3.9,0-7.4-1-10.3-3c-2.9-2-4.4-4.9-4.3-8.7l0.1-0.2h3c0,3.1,1.1,5.4,3.4,6.8
		c2.3,1.5,5,2.2,8.1,2.2c3.1,0,5.7-0.7,7.6-2.1C353.9,99,354.8,97.1,354.8,94.9z M369.8,67.7v7.5h6.5v2.7h-6.5V97
		c0,1.9,0.3,3.3,1,4.1c0.7,0.8,1.6,1.2,2.8,1.2c0.5,0,1,0,1.5-0.1c0.5,0,1.1-0.1,1.7-0.2l0.5,2.4c-0.6,0.3-1.3,0.4-2,0.5
		c-0.8,0.1-1.6,0.2-2.3,0.2c-2.1,0-3.7-0.7-4.8-2c-1.1-1.3-1.7-3.4-1.7-6.2V77.9h-5.1v-2.7h5.1v-7.5L369.8,67.7L369.8,67.7z
		 M402.4,99.8c-0.9,1.7-2.2,3-3.8,4c-1.6,0.9-3.5,1.4-5.6,1.4c-3.1,0-5.5-1-7.3-3.1c-1.8-2.1-2.6-5.4-2.6-9.8v-17h3.3v17.1
		c0,3.6,0.6,6.1,1.8,7.7c1.2,1.6,3,2.3,5.2,2.3c2.5,0,4.4-0.6,5.9-1.7c1.5-1.1,2.5-2.6,3.1-4.6V75.2h3.3v29.3h-2.9L402.4,99.8
		L402.4,99.8z M412.8,90.1c0-4.7,1-8.4,3-11.2c2-2.8,4.7-4.2,8.3-4.2c2,0,3.8,0.4,5.3,1.3c1.5,0.9,2.7,2.1,3.7,3.7V62.3h3.2v42.3
		h-2.9l-0.3-4.3c-0.9,1.5-2.2,2.7-3.8,3.6c-1.5,0.8-3.3,1.2-5.4,1.2c-3.5,0-6.3-1.3-8.2-3.9c-2-2.6-3-6.1-3-10.5V90.1L412.8,90.1z
		 M416.1,90.7c0,3.5,0.7,6.4,2.1,8.5c1.4,2.1,3.6,3.1,6.4,3.1c2.1,0,3.8-0.5,5.2-1.4c1.4-0.9,2.5-2.2,3.3-3.9V83.2
		c-0.7-1.7-1.8-3.1-3.1-4.1c-1.4-1.1-3.1-1.6-5.3-1.6c-2.9,0-5,1.2-6.4,3.5c-1.4,2.3-2.2,5.4-2.2,9.1L416.1,90.7L416.1,90.7z
		 M448.6,104.6h-3.2V75.2h3.2V104.6z M448.6,66.8h-3.2v-4.6h3.2C448.6,62.3,448.6,66.8,448.6,66.8z M455.8,89.5
		c0-4.3,1.2-7.9,3.6-10.6c2.4-2.8,5.5-4.1,9.4-4.1c3.9,0,7.1,1.4,9.4,4.1c2.4,2.8,3.6,6.3,3.6,10.6v0.9c0,4.3-1.2,7.9-3.5,10.6
		c-2.4,2.8-5.5,4.1-9.4,4.1c-3.9,0-7.1-1.4-9.5-4.1c-2.4-2.8-3.6-6.3-3.6-10.6L455.8,89.5L455.8,89.5z M459.1,90.4
		c0,3.4,0.9,6.3,2.6,8.6c1.7,2.3,4.1,3.5,7.2,3.5c3,0,5.4-1.2,7.1-3.5c1.7-2.3,2.6-5.2,2.6-8.6v-0.9c0-3.3-0.9-6.2-2.6-8.5
		c-1.7-2.3-4.1-3.5-7.2-3.5c-3,0-5.4,1.2-7.1,3.5c-1.7,2.3-2.6,5.2-2.6,8.5L459.1,90.4L459.1,90.4z"/>
</g>
</svg>
