<?xml version="1.0" encoding="UTF-8" standalone="no" ?>
<!DOCTYPE svg PUBLIC "-//W3C//DTD SVG 1.1//EN" "http://www.w3.org/Graphics/SVG/1.1/DTD/svg11.dtd">
<svg xmlns="http://www.w3.org/2000/svg" xmlns:xlink="http://www.w3.org/1999/xlink" version="1.1" width="640" height="480" viewBox="0 0 640 480" xml:space="preserve">
<desc>Created with Fabric.js 3.6.6</desc>
<defs>
</defs>
<g transform="matrix(0.19 0 0 0.19 318.59 238)"  >
<g style=""   >
		<g transform="matrix(8.62 0 0 8.62 0.32 0.37)"  >
<path style="stroke: none; stroke-width: 1; stroke-dasharray: none; stroke-linecap: butt; stroke-dashoffset: 0; stroke-linejoin: miter; stroke-miterlimit: 4; fill: rgb(161,121,220); fill-rule: nonzero; opacity: 1;"  transform=" translate(-127.79, -143.63)" d="m 255.569 84.452 c -0.002 -4.83 -1.035 -9.098 -3.124 -12.76 c -2.052 -3.603 -5.125 -6.622 -9.247 -9.009 c -34.025 -19.619 -68.083 -39.178 -102.097 -58.817 c -9.17 -5.294 -18.061 -5.1 -27.163 0.27 c -13.543 7.986 -81.348 46.833 -101.553 58.536 c -8.321 4.818 -12.37 12.19 -12.372 21.771 c -0.013 39.455 0 78.91 -0.013 118.365 c 0 4.724 0.991 8.91 2.988 12.517 c 2.053 3.711 5.169 6.813 9.386 9.254 c 20.206 11.703 88.02 50.547 101.56 58.536 c 9.106 5.373 17.997 5.565 27.17 0.27 c 34.015 -19.64 68.075 -39.199 102.105 -58.818 c 4.217 -2.44 7.333 -5.544 9.386 -9.252 c 1.994 -3.608 2.987 -7.793 2.987 -12.518 c 0 0 0 -78.889 -0.013 -118.345" stroke-linecap="round" />
</g>
		<g transform="matrix(8.62 0 0 8.62 0.32 617.37)"  >
<path style="stroke: none; stroke-width: 1; stroke-dasharray: none; stroke-linecap: butt; stroke-dashoffset: 0; stroke-linejoin: miter; stroke-miterlimit: 4; fill: rgb(40,0,104); fill-rule: nonzero; opacity: 1;"  transform=" translate(-127.79, -215.25)" d="m 128.182 143.241 l -125.194 72.084 c 2.053 3.711 5.169 6.813 9.386 9.254 c 20.206 11.703 88.02 50.547 101.56 58.536 c 9.106 5.373 17.997 5.565 27.17 0.27 c 34.015 -19.64 68.075 -39.199 102.105 -58.818 c 4.217 -2.44 7.333 -5.544 9.386 -9.252 z" stroke-linecap="round" />
</g>
		<g transform="matrix(8.62 0 0 8.62 552.46 -0.87)"  >
<path style="stroke: none; stroke-width: 1; stroke-dasharray: none; stroke-linecap: butt; stroke-dashoffset: 0; stroke-linejoin: miter; stroke-miterlimit: 4; fill: rgb(57,0,145); fill-rule: nonzero; opacity: 1;"  transform=" translate(-191.88, -143.5)" d="m 255.569 84.452 c -0.002 -4.83 -1.035 -9.098 -3.124 -12.76 l -124.263 71.55 l 124.413 72.073 c 1.994 -3.608 2.985 -7.793 2.987 -12.518 c 0 0 0 -78.889 -0.013 -118.345" stroke-linecap="round" />
</g>
		<g transform="matrix(8.62 0 0 8.62 696.7 -3.24)"  >
<path style="stroke: none; stroke-width: 1; stroke-dasharray: none; stroke-linecap: butt; stroke-dashoffset: 0; stroke-linejoin: miter; stroke-miterlimit: 4; fill: rgb(255,255,255); fill-rule: nonzero; opacity: 1;"  transform=" translate(-208.63, -143.24)" d="m 201.892 116.294 v 13.474 h 13.474 v -13.474 h 6.737 v 13.474 h 13.474 v 6.737 h -13.474 v 13.473 h 13.474 v 6.737 h -13.474 v 13.474 h -6.737 v -13.474 h -13.474 v 13.474 h -6.737 v -13.474 h -13.473 v -6.737 h 13.473 v -13.473 h -13.473 v -6.737 h 13.473 v -13.474 z m 13.474 20.21 h -13.474 v 13.474 h 13.474 z" stroke-linecap="round" />
</g>
		<g transform="matrix(8.62 0 0 8.62 -48.72 0.23)"  >
<path style="stroke: none; stroke-width: 1; stroke-dasharray: none; stroke-linecap: butt; stroke-dashoffset: 0; stroke-linejoin: miter; stroke-miterlimit: 4; fill: rgb(255,255,255); fill-rule: nonzero; opacity: 1;"  transform=" translate(-122.11, -143.63)" d="m 128.457 48.626 c 35.144 0 65.827 19.086 82.262 47.456 l -0.16 -0.273 l -41.35 23.808 c -8.146 -13.793 -23.08 -23.102 -40.213 -23.294 l -0.54 -0.003 c -26.125 0 -47.305 21.18 -47.305 47.305 a 47.08 47.08 0 0 0 6.239 23.47 c 8.154 14.235 23.483 23.836 41.067 23.836 c 17.693 0 33.109 -9.723 41.221 -24.11 l -0.197 0.345 l 41.287 23.918 c -16.255 28.13 -46.518 47.157 -81.253 47.536 l -1.058 0.006 c -35.255 0 -66.025 -19.204 -82.419 -47.724 c -8.003 -13.923 -12.582 -30.064 -12.582 -47.277 c 0 -52.466 42.532 -95 95 -95 z" stroke-linecap="round" />
</g>
</g>
</g>
</svg>