<?xml version="1.0" encoding="UTF-8" standalone="no" ?>
<!DOCTYPE svg PUBLIC "-//W3C//DTD SVG 1.1//EN" "http://www.w3.org/Graphics/SVG/1.1/DTD/svg11.dtd">
<svg xmlns="http://www.w3.org/2000/svg" xmlns:xlink="http://www.w3.org/1999/xlink" version="1.1" width="640" height="480" viewBox="0 0 640 480" xml:space="preserve">
<desc>Created with Fabric.js 3.6.6</desc>
<defs>
</defs>
<g transform="matrix(1.58 0 0 1.58 320.48 240.39)"  >
<g style=""   >
		<g transform="matrix(1 0 0 1 -6.37 -31.23)"  >
<path style="stroke: none; stroke-width: 1; stroke-dasharray: none; stroke-linecap: butt; stroke-dashoffset: 0; stroke-linejoin: miter; stroke-miterlimit: 4; fill: rgb(124,179,64); fill-rule: nonzero; opacity: 1;"  transform=" translate(-258.95, -148)" d="M 259 96.6 c -56.5 0 -102.4 46.1 -102.4 102.8 h 204.7 C 361.5 142.6 315.6 96.6 259 96.6 L 259 96.6 z" stroke-linecap="round" />
</g>
		<g transform="matrix(1 0 0 1 -6.22 71.57)"  >
<path style="stroke: none; stroke-width: 1; stroke-dasharray: none; stroke-linecap: butt; stroke-dashoffset: 0; stroke-linejoin: miter; stroke-miterlimit: 4; fill: rgb(140,192,77); fill-rule: nonzero; opacity: 1;"  transform=" translate(-259.1, -250.8)" d="M 259 199.4 H 156.7 c 0 56.7 45.9 102.8 102.4 102.8 s 102.4 -46.1 102.4 -102.8 L 259 199.4 L 259 199.4 z" stroke-linecap="round" />
</g>
		<g transform="matrix(1 0 0 1 -6.37 19.57)"  >
<path style="stroke: none; stroke-width: 1; stroke-dasharray: none; stroke-linecap: butt; stroke-dashoffset: 0; stroke-linejoin: miter; stroke-miterlimit: 4; fill: rgb(38,50,57); fill-opacity: 0.05; fill-rule: nonzero; opacity: 1;"  transform=" translate(-258.95, -198.8)" d="M 144.7 198.2 h 228.5 v 1.2 H 144.7 V 198.2 z" stroke-linecap="round" />
</g>
		<g transform="matrix(1 0 0 1 -6.37 20.77)"  >
<path style="stroke: none; stroke-width: 1; stroke-dasharray: none; stroke-linecap: butt; stroke-dashoffset: 0; stroke-linejoin: miter; stroke-miterlimit: 4; fill: rgb(255,255,255); fill-opacity: 0.05; fill-rule: nonzero; opacity: 1;"  transform=" translate(-258.95, -200)" d="M 144.7 199.4 h 228.5 v 1.2 H 144.7 V 199.4 z" stroke-linecap="round" />
</g>
		<g transform="matrix(1 0 0 1 10.23 42.97)"  >
<linearGradient id="SVGID_35" gradientUnits="userSpaceOnUse" gradientTransform="matrix(86.28 0 0 -83.71 3377.98 32849.07)"  x1="-36.7639" y1="390.2611" x2="-35.4437" y2="388.8947">
<stop offset="33%" style="stop-color:rgb(38,50,57);stop-opacity: 0.16"/>
<stop offset="100%" style="stop-color:rgb(38,50,57);stop-opacity: 0"/>
</linearGradient>
<path style="stroke: none; stroke-width: 1; stroke-dasharray: none; stroke-linecap: butt; stroke-dashoffset: 0; stroke-linejoin: miter; stroke-miterlimit: 4; fill: url(#SVGID_35); fill-rule: nonzero; opacity: 1;"  transform=" translate(-275.55, -222.2)" d="M 332.8 199.6 v -0.2 h -4.7 l -57.1 -57.4 h -23.7 v 19.2 h -6 c -5.9 0 -10.7 4.9 -10.7 10.7 v 24.4 h 0.1 c -0.1 0.8 0.5 1.9 1.6 3.1 c 0.1 0.1 0.1 0.1 0.1 0.2 l 3.7 3.7 L 193 278.1 c 4.9 4.2 10.2 7.8 15.8 11 c 14.9 8.4 31.9 13.3 50.2 13.3 c 18.2 0 35.4 -4.9 50.2 -13.3 c 5.6 -3.2 10.9 -6.9 15.8 -11 c 15.3 -13 26.4 -30.1 32.1 -49.3 c 0.4 -1.2 0.7 -2.4 1 -3.5 L 332.8 199.6 z" stroke-linecap="round" />
</g>
		<g transform="matrix(1 0 0 1 10.23 42.97)"  >
<linearGradient id="SVGID_36" gradientUnits="userSpaceOnUse" gradientTransform="matrix(86.28 0 0 -83.71 3377.98 32849.07)"  x1="-37.0691" y1="389.4239" x2="-35.9928" y2="389.819">
<stop offset="33%" style="stop-color:rgb(38,50,57);stop-opacity: 0.16"/>
<stop offset="100%" style="stop-color:rgb(38,50,57);stop-opacity: 0"/>
</linearGradient>
<path style="stroke: none; stroke-width: 1; stroke-dasharray: none; stroke-linecap: butt; stroke-dashoffset: 0; stroke-linejoin: miter; stroke-miterlimit: 4; fill: url(#SVGID_36); fill-rule: nonzero; opacity: 1;"  transform=" translate(-275.55, -222.2)" d="M 332.8 199.6 v -0.2 h -4.7 l -57.1 -57.4 h -23.7 v 19.2 h -6 c -5.9 0 -10.7 4.9 -10.7 10.7 v 24.4 h 0.1 c -0.1 0.8 0.5 1.9 1.6 3.1 c 0.1 0.1 0.1 0.1 0.1 0.2 l 3.7 3.7 L 193 278.1 c 4.9 4.2 10.2 7.8 15.8 11 c 14.9 8.4 31.9 13.3 50.2 13.3 c 18.2 0 35.4 -4.9 50.2 -13.3 c 5.6 -3.2 10.9 -6.9 15.8 -11 c 15.3 -13 26.4 -30.1 32.1 -49.3 c 0.4 -1.2 0.7 -2.4 1 -3.5 L 332.8 199.6 z" stroke-linecap="round" />
</g>
		<g transform="matrix(1 0 0 1 39.98 85.48)"  >
<path style="stroke: none; stroke-width: 1; stroke-dasharray: none; stroke-linecap: butt; stroke-dashoffset: 0; stroke-linejoin: miter; stroke-miterlimit: 4; fill: rgb(225,225,224); fill-rule: nonzero; opacity: 1;"  transform=" translate(-305.31, -264.71)" d="M 341.1 307.1 c -0.1 -0.9 -0.4 -1.8 -0.8 -2.6 l -29.8 -51.9 l -9.9 -17.3 l -18.4 -32 l -14.1 14.1 l 17.3 30.2 l 9.5 16.5 l 28.8 49.9 c 0.5 0.8 1.1 1.5 1.9 2 l 14.3 9.8 c 0.5 0.4 1.2 0.4 1.8 0.1 c 0.5 -0.3 0.9 -1 0.8 -1.6 L 341.1 307.1 L 341.1 307.1 z" stroke-linecap="round" />
</g>
		<g transform="matrix(1 0 0 1 46.68 84.62)"  >
<path style="stroke: none; stroke-width: 1; stroke-dasharray: none; stroke-linecap: butt; stroke-dashoffset: 0; stroke-linejoin: miter; stroke-miterlimit: 4; fill: rgb(255,255,255); fill-opacity: 0.4; fill-rule: nonzero; opacity: 1;"  transform=" translate(-312, -263.85)" d="M 300.5 236.4 l 9.9 17.3 l 29.9 51.9 c 0.5 0.8 0.7 1.7 0.8 2.6 l 1.2 16.4 c 0 -0.1 0.1 -0.2 0.1 -0.4 l -1.3 -17.3 c -0.1 -0.9 -0.4 -1.8 -0.8 -2.6 l -29.8 -51.9 l -9.9 -17.3 l -18.4 -32 l -0.6 0.7 L 300.5 236.4 z" stroke-linecap="round" />
</g>
		<g transform="matrix(1 0 0 1 39.98 92.38)"  >
<path style="stroke: none; stroke-width: 1; stroke-dasharray: none; stroke-linecap: butt; stroke-dashoffset: 0; stroke-linejoin: miter; stroke-miterlimit: 4; fill: rgb(38,38,38); fill-opacity: 0.2; fill-rule: nonzero; opacity: 1;"  transform=" translate(-305.31, -271.61)" d="M 341.6 324.6 c -0.6 0.4 -1.2 0.3 -1.8 -0.1 l -14.3 -9.8 c -0.7 -0.5 -1.4 -1.2 -1.9 -2 l -28.8 -49.9 l -9.5 -16.5 L 268.6 217 l -0.5 0.5 l 17.3 30.2 l 9.5 16.5 l 28.8 49.9 c 0.5 0.8 1.1 1.5 1.9 2 l 14.3 9.8 c 0.5 0.4 1.2 0.4 1.8 0.1 c 0.5 -0.3 0.9 -1 0.8 -1.6 l -0.1 -0.8 C 342.2 324 342 324.4 341.6 324.6 z" stroke-linecap="round" />
</g>
		<g transform="matrix(1 0 0 1 -11.14 83.6)"  >
<path style="stroke: none; stroke-width: 1; stroke-dasharray: none; stroke-linecap: butt; stroke-dashoffset: 0; stroke-linejoin: miter; stroke-miterlimit: 4; fill: rgb(241,241,241); fill-rule: nonzero; opacity: 1;"  transform=" translate(-254.19, -262.83)" d="M 313.8 199.4 c 0 13.6 -5 26.2 -13.3 35.9 c -4.3 5 -9.3 9.2 -15.1 12.3 c -7.8 4.4 -16.8 6.8 -26.4 6.8 c -9.2 0 -18.3 -2.3 -26.3 -6.8 l 17.3 -30.2 l -14.1 -14.1 l -58.2 101.1 c -0.5 0.8 -0.7 1.7 -0.8 2.6 l -1.3 17.4 c -0.1 0.7 0.3 1.2 0.8 1.6 c 0.6 0.4 1.2 0.3 1.8 -0.1 l 14.3 -9.7 c 0.7 -0.6 1.4 -1.2 1.9 -2 l 28.8 -50 c 11 6.2 23.3 9.4 35.9 9.4 c 12.6 0 25 -3.2 35.9 -9.4 c 5.6 -3.2 10.8 -7.1 15.4 -11.6 c 13.8 -13.5 22.4 -32.3 22.4 -53.2 L 313.8 199.4 L 313.8 199.4 z" stroke-linecap="round" />
</g>
		<g transform="matrix(1 0 0 1 -6.17 56.67)"  >
<path style="stroke: none; stroke-width: 1; stroke-dasharray: none; stroke-linecap: butt; stroke-dashoffset: 0; stroke-linejoin: miter; stroke-miterlimit: 4; fill: none; fill-rule: nonzero; opacity: 1;"  transform=" translate(-259.15, -235.9)" d="M 264.4 221.1 c -1.4 1.4 -3.3 2.2 -5.3 2.2 l -0.1 -0.1 v 0.1 c -2 0 -3.9 -0.7 -5.3 -2.2 l -3.6 -3.6 l -17.3 30.1 c 7.8 4.4 16.8 6.8 26.3 6.8 c 9.5 0 18.6 -2.5 26.4 -6.8 l -17.3 -30.2 L 264.4 221.1 L 264.4 221.1 z" stroke-linecap="round" />
</g>
		<g transform="matrix(1 0 0 1 -6.27 3.42)"  >
<path style="stroke: none; stroke-width: 1; stroke-dasharray: none; stroke-linecap: butt; stroke-dashoffset: 0; stroke-linejoin: miter; stroke-miterlimit: 4; fill: rgb(101,101,100); fill-rule: nonzero; opacity: 1;"  transform=" translate(-259.05, -182.65)" d="M 276.9 161.2 h -6 V 142 h -23.7 v 19.2 h -6.1 c -5.9 0 -10.7 4.9 -10.7 10.7 v 24.4 h 0.1 c -0.1 0.9 0.5 2 1.7 3.2 l 21.5 21.6 c 1.4 1.4 3.3 2.2 5.3 2.2 v -0.1 l 0.1 0.1 c 2 0 3.9 -0.7 5.3 -2.2 l 21.5 -21.6 c 1.2 -1.2 1.7 -2.3 1.7 -3.2 h 0.1 V 172 C 287.6 166.1 282.8 161.2 276.9 161.2 z M 259.1 199.4 L 259.1 199.4 c -7.9 0 -14.3 -6.4 -14.3 -14.4 c 0 -7.9 6.4 -14.4 14.2 -14.4 v -0.2 l 0.1 0.2 c 7.8 0.1 14.2 6.4 14.2 14.4 S 266.9 199.3 259.1 199.4 L 259.1 199.4 z" stroke-linecap="round" />
</g>
		<g transform="matrix(1 0 0 1 -6.27 -36.63)"  >
<path style="stroke: none; stroke-width: 1; stroke-dasharray: none; stroke-linecap: butt; stroke-dashoffset: 0; stroke-linejoin: miter; stroke-miterlimit: 4; fill: rgb(255,255,255); fill-rule: nonzero; opacity: 0.2;"  transform=" translate(-259.05, -142.6)" d="M 270.9 143.2 V 142 h -23.7 v 1.2 H 259 H 270.9 z" stroke-linecap="round" />
</g>
		<g transform="matrix(1 0 0 1 -6.37 12.77)"  >
<path style="stroke: none; stroke-width: 1; stroke-dasharray: none; stroke-linecap: butt; stroke-dashoffset: 0; stroke-linejoin: miter; stroke-miterlimit: 4; fill: rgb(255,255,255); fill-opacity: 0.2; fill-rule: nonzero; opacity: 1;"  transform=" translate(-258.95, -192)" d="M 259.1 198.2 L 259.1 198.2 c -7.7 0 -14 -6.2 -14.3 -13.7 c 0 0.2 -0.1 0.4 -0.1 0.6 c 0 7.8 6.4 14.4 14.2 14.4 h 0.1 c 7.8 -0.1 14.2 -6.4 14.2 -14.4 c 0 -0.2 0 -0.4 -0.1 -0.6 C 273 192 266.7 198.1 259.1 198.2 z" stroke-linecap="round" />
</g>
		<g transform="matrix(1 0 0 1 -6.28 -12.08)"  >
<path style="stroke: none; stroke-width: 1; stroke-dasharray: none; stroke-linecap: butt; stroke-dashoffset: 0; stroke-linejoin: miter; stroke-miterlimit: 4; fill: rgb(255,255,255); fill-rule: nonzero; opacity: 0.2;"  transform=" translate(-259.05, -167.15)" d="M 241.2 162.4 h 6 v -1.2 h -6 c -5.9 0 -10.7 4.9 -10.7 10.7 v 1.2 C 230.4 167.3 235.3 162.4 241.2 162.4 z M 276.9 161.2 h -6 v 1.2 h 6 c 5.9 0 10.7 4.9 10.7 10.7 V 172 C 287.6 166.1 282.8 161.2 276.9 161.2 z" stroke-linecap="round" />
</g>
		<g transform="matrix(1 0 0 1 -6.27 29.97)"  >
<path style="stroke: none; stroke-width: 1; stroke-dasharray: none; stroke-linecap: butt; stroke-dashoffset: 0; stroke-linejoin: miter; stroke-miterlimit: 4; fill: rgb(38,38,38); fill-opacity: 0.2; fill-rule: nonzero; opacity: 1;"  transform=" translate(-259.05, -209.2)" d="M 285.9 198.4 L 264.4 220 c -1.4 1.4 -3.3 2.2 -5.3 2.2 l -0.1 -0.1 v 0.1 c -2 0 -3.9 -0.7 -5.3 -2.2 l -21.5 -21.6 c -1.2 -1.2 -1.7 -2.3 -1.7 -3.2 h -0.1 v 1.2 h 0.1 c -0.1 0.9 0.5 2 1.7 3.2 l 21.5 21.5 c 1.4 1.4 3.3 2.2 5.3 2.2 v -0.1 l 0.1 0.1 c 2 0 3.9 -0.7 5.3 -2.2 l 21.5 -21.6 c 1.2 -1.2 1.7 -2.3 1.7 -3.2 h 0.1 v -1.2 h -0.1 C 287.6 196.1 287.1 197.2 285.9 198.4 z" stroke-linecap="round" />
</g>
		<g transform="matrix(0.86 0 0 0.86 0 -128.52)"  >
<path style="stroke: none; stroke-width: 1; stroke-dasharray: none; stroke-linecap: butt; stroke-dashoffset: 0; stroke-linejoin: miter; stroke-miterlimit: 4; fill: rgb(104,104,104); fill-rule: evenodd; opacity: 1;"  transform=" translate(-300.15, -83.8)" d="M 144.2 94.4 h -16.5 l -3.7 10.2 h -5.5 l 15.3 -39.5 h 4.6 l 15 39.5 h -5.5 C 147.9 104.6 144.2 94.4 144.2 94.4 z M 129.3 89.9 h 13.3 l -6.5 -18 H 136 L 129.3 89.9 z M 162.6 75.2 l 0.4 4.4 c 1 -1.6 2.2 -2.8 3.7 -3.6 c 1.5 -0.9 3.2 -1.3 5 -1.3 c 3.2 0 5.6 0.9 7.3 2.8 c 1.7 1.9 2.6 4.7 2.6 8.6 v 18.5 h -5.3 V 86.2 c 0 -2.6 -0.5 -4.4 -1.5 -5.5 c -1 -1.1 -2.6 -1.6 -4.7 -1.6 c -1.5 0 -2.9 0.4 -4.1 1.1 c -1.2 0.8 -2.2 1.8 -2.8 3 v 21.4 h -5.3 V 75.2 C 157.8 75.2 162.6 75.2 162.6 75.2 z M 188.1 90.4 c 0 -4.7 1 -8.5 3 -11.4 c 2 -2.9 4.8 -4.3 8.5 -4.3 c 1.7 0 3.2 0.3 4.6 0.9 c 1.3 0.6 2.5 1.6 3.4 2.8 V 62.3 h 5.3 v 42.3 h -4.4 L 208 101 c -1 1.4 -2.1 2.4 -3.5 3.1 c -1.4 0.7 -3 1.1 -4.9 1.1 c -3.6 0 -6.4 -1.3 -8.4 -3.9 c -2 -2.6 -3 -6 -3 -10.2 C 188.1 91 188.1 90.4 188.1 90.4 z M 193.5 91 c 0 3 0.6 5.3 1.8 7.1 c 1.2 1.8 3.1 2.7 5.6 2.7 c 1.6 0 2.9 -0.4 4 -1.1 c 1.1 -0.7 2 -1.7 2.7 -3 V 83 c -0.6 -1.2 -1.6 -2.2 -2.7 -2.9 c -1.1 -0.7 -2.4 -1.1 -3.9 -1.1 c -2.6 0 -4.5 1.1 -5.7 3.2 c -1.2 2.1 -1.8 4.9 -1.8 8.2 L 193.5 91 L 193.5 91 z M 234.8 79.9 l -2.7 -0.2 c -1.4 0 -2.6 0.3 -3.6 1 c -1 0.7 -1.7 1.6 -2.2 2.8 v 21 h -5.3 V 75.2 h 4.8 l 0.5 4.3 c 0.8 -1.5 1.9 -2.7 3.1 -3.6 c 1.2 -0.9 2.6 -1.3 4.2 -1.3 c 0.7 0 1.4 0.1 2 0.3 L 234.8 79.9 L 234.8 79.9 z M 238.7 89.6 c 0 -4.3 1.2 -7.9 3.5 -10.7 c 2.4 -2.8 5.5 -4.2 9.6 -4.2 c 4.1 0 7.3 1.4 9.6 4.2 c 2.4 2.8 3.5 6.4 3.5 10.7 v 0.6 c 0 4.4 -1.2 8 -3.5 10.7 c -2.4 2.8 -5.6 4.2 -9.6 4.2 c -4 0 -7.3 -1.4 -9.6 -4.2 c -2.4 -2.8 -3.5 -6.4 -3.5 -10.7 C 238.7 90.2 238.7 89.6 238.7 89.6 z M 244.1 90.2 c 0 3.1 0.7 5.7 2 7.7 c 1.3 2 3.3 3 5.8 3 c 2.5 0 4.5 -1 5.8 -3 c 1.3 -2 2 -4.6 2 -7.7 v -0.6 c 0 -3.1 -0.7 -5.6 -2 -7.7 c -1.3 -2 -3.3 -3.1 -5.8 -3.1 c -2.5 0 -4.5 1 -5.8 3.1 c -1.3 2 -2 4.6 -2 7.7 L 244.1 90.2 L 244.1 90.2 z M 277.3 104.6 H 272 V 75.2 h 5.3 V 104.6 z M 277.3 67.7 H 272 v -5.5 h 5.3 C 277.3 62.3 277.3 67.7 277.3 67.7 z M 284.3 90.4 c 0 -4.7 1 -8.5 3 -11.4 c 2 -2.9 4.8 -4.3 8.5 -4.3 c 1.7 0 3.2 0.3 4.6 0.9 c 1.3 0.6 2.5 1.6 3.4 2.8 V 62.3 h 5.3 v 42.3 h -4.4 l -0.6 -3.6 c -1 1.4 -2.1 2.4 -3.5 3.1 c -1.4 0.7 -3 1.1 -4.9 1.1 c -3.6 0 -6.4 -1.3 -8.4 -3.9 c -2 -2.6 -3 -6 -3 -10.2 L 284.3 90.4 L 284.3 90.4 z M 289.7 91 c 0 3 0.6 5.3 1.8 7.1 c 1.2 1.8 3.1 2.7 5.6 2.7 c 1.6 0 2.9 -0.4 4 -1.1 c 1.1 -0.7 2 -1.7 2.7 -3 V 83 c -0.6 -1.2 -1.6 -2.2 -2.7 -2.9 c -1.1 -0.7 -2.4 -1.1 -3.9 -1.1 c -2.6 0 -4.5 1.1 -5.7 3.2 c -1.2 2.1 -1.8 4.9 -1.8 8.2 L 289.7 91 L 289.7 91 z M 354.8 94.9 c 0 -2.2 -0.8 -3.9 -2.4 -5.3 c -1.6 -1.4 -4.4 -2.6 -8.4 -3.6 c -4.3 -1.1 -7.6 -2.5 -9.8 -4.2 c -2.2 -1.7 -3.3 -4.1 -3.3 -7 c 0 -3 1.2 -5.5 3.7 -7.4 c 2.5 -1.9 5.7 -2.8 9.6 -2.8 c 4.1 0 7.4 1.1 9.8 3.4 c 2.5 2.3 3.7 5 3.6 8.3 l -0.1 0.2 h -3 c 0 -2.6 -0.9 -4.8 -2.8 -6.5 c -1.9 -1.7 -4.4 -2.5 -7.6 -2.5 c -3.2 0 -5.6 0.7 -7.4 2.1 c -1.8 1.4 -2.7 3.2 -2.7 5.3 c 0 2 0.8 3.6 2.5 5 c 1.6 1.3 4.5 2.5 8.5 3.5 c 4.2 1.1 7.5 2.6 9.7 4.4 c 2.2 1.8 3.3 4.3 3.3 7.3 c 0 3.1 -1.3 5.7 -3.9 7.5 c -2.6 1.9 -5.9 2.8 -9.9 2.8 c -3.9 0 -7.4 -1 -10.3 -3 c -2.9 -2 -4.4 -4.9 -4.3 -8.7 l 0.1 -0.2 h 3 c 0 3.1 1.1 5.4 3.4 6.8 c 2.3 1.5 5 2.2 8.1 2.2 c 3.1 0 5.7 -0.7 7.6 -2.1 C 353.9 99 354.8 97.1 354.8 94.9 z M 369.8 67.7 v 7.5 h 6.5 v 2.7 h -6.5 V 97 c 0 1.9 0.3 3.3 1 4.1 c 0.7 0.8 1.6 1.2 2.8 1.2 c 0.5 0 1 0 1.5 -0.1 c 0.5 0 1.1 -0.1 1.7 -0.2 l 0.5 2.4 c -0.6 0.3 -1.3 0.4 -2 0.5 c -0.8 0.1 -1.6 0.2 -2.3 0.2 c -2.1 0 -3.7 -0.7 -4.8 -2 c -1.1 -1.3 -1.7 -3.4 -1.7 -6.2 V 77.9 h -5.1 v -2.7 h 5.1 v -7.5 L 369.8 67.7 L 369.8 67.7 z M 402.4 99.8 c -0.9 1.7 -2.2 3 -3.8 4 c -1.6 0.9 -3.5 1.4 -5.6 1.4 c -3.1 0 -5.5 -1 -7.3 -3.1 c -1.8 -2.1 -2.6 -5.4 -2.6 -9.8 v -17 h 3.3 v 17.1 c 0 3.6 0.6 6.1 1.8 7.7 c 1.2 1.6 3 2.3 5.2 2.3 c 2.5 0 4.4 -0.6 5.9 -1.7 c 1.5 -1.1 2.5 -2.6 3.1 -4.6 V 75.2 h 3.3 v 29.3 h -2.9 L 402.4 99.8 L 402.4 99.8 z M 412.8 90.1 c 0 -4.7 1 -8.4 3 -11.2 c 2 -2.8 4.7 -4.2 8.3 -4.2 c 2 0 3.8 0.4 5.3 1.3 c 1.5 0.9 2.7 2.1 3.7 3.7 V 62.3 h 3.2 v 42.3 h -2.9 l -0.3 -4.3 c -0.9 1.5 -2.2 2.7 -3.8 3.6 c -1.5 0.8 -3.3 1.2 -5.4 1.2 c -3.5 0 -6.3 -1.3 -8.2 -3.9 c -2 -2.6 -3 -6.1 -3 -10.5 V 90.1 L 412.8 90.1 z M 416.1 90.7 c 0 3.5 0.7 6.4 2.1 8.5 c 1.4 2.1 3.6 3.1 6.4 3.1 c 2.1 0 3.8 -0.5 5.2 -1.4 c 1.4 -0.9 2.5 -2.2 3.3 -3.9 V 83.2 c -0.7 -1.7 -1.8 -3.1 -3.1 -4.1 c -1.4 -1.1 -3.1 -1.6 -5.3 -1.6 c -2.9 0 -5 1.2 -6.4 3.5 c -1.4 2.3 -2.2 5.4 -2.2 9.1 L 416.1 90.7 L 416.1 90.7 z M 448.6 104.6 h -3.2 V 75.2 h 3.2 V 104.6 z M 448.6 66.8 h -3.2 v -4.6 h 3.2 C 448.6 62.3 448.6 66.8 448.6 66.8 z M 455.8 89.5 c 0 -4.3 1.2 -7.9 3.6 -10.6 c 2.4 -2.8 5.5 -4.1 9.4 -4.1 c 3.9 0 7.1 1.4 9.4 4.1 c 2.4 2.8 3.6 6.3 3.6 10.6 v 0.9 c 0 4.3 -1.2 7.9 -3.5 10.6 c -2.4 2.8 -5.5 4.1 -9.4 4.1 c -3.9 0 -7.1 -1.4 -9.5 -4.1 c -2.4 -2.8 -3.6 -6.3 -3.6 -10.6 L 455.8 89.5 L 455.8 89.5 z M 459.1 90.4 c 0 3.4 0.9 6.3 2.6 8.6 c 1.7 2.3 4.1 3.5 7.2 3.5 c 3 0 5.4 -1.2 7.1 -3.5 c 1.7 -2.3 2.6 -5.2 2.6 -8.6 v -0.9 c 0 -3.3 -0.9 -6.2 -2.6 -8.5 c -1.7 -2.3 -4.1 -3.5 -7.2 -3.5 c -3 0 -5.4 1.2 -7.1 3.5 c -1.7 2.3 -2.6 5.2 -2.6 8.5 L 459.1 90.4 L 459.1 90.4 z" stroke-linecap="round" />
</g>
</g>
</g>
</svg>