<?xml version="1.0" encoding="UTF-8" standalone="no" ?>
<!DOCTYPE svg PUBLIC "-//W3C//DTD SVG 1.1//EN" "http://www.w3.org/Graphics/SVG/1.1/DTD/svg11.dtd">
<svg xmlns="http://www.w3.org/2000/svg" xmlns:xlink="http://www.w3.org/1999/xlink" version="1.1" width="640" height="250" viewBox="0 0 640 250" xml:space="preserve">
<desc>Created with Fabric.js 3.6.6</desc>
<defs>
</defs>
<g transform="matrix(1 0 0 1 320.38 125.37)"  >
<g style=""   >
		<g transform="matrix(0.82 0 0 0.72 136.21 17.5)"  >
<path style="stroke: none; stroke-width: 1; stroke-dasharray: none; stroke-linecap: butt; stroke-dashoffset: 0; stroke-linejoin: miter; stroke-miterlimit: 4; fill: rgb(0,0,0); fill-rule: nonzero; opacity: 1;"  transform=" translate(-592.6, -300.7)" d="M 375.8 304.4 v -76.8 H 408 v 78 c 0 13 6.8 21.5 22.6 21.5 c 14.7 0 22 -9 22 -22 v -77.4 h 32.2 v 76.8 c 0 29.9 -18.1 48 -54.2 48 C 393.8 352.9 375.8 334.9 375.8 304.4 z M 499.4 256.9 h 28.8 v 13 h 0.6 c 6.8 -10.2 15.8 -15.2 28.8 -15.2 c 20.3 0 32.2 14.7 32.2 35.6 v 60.4 h -29.9 v -54.8 c 0 -9.6 -5.1 -16.4 -14.7 -16.4 s -16.4 8.5 -16.4 19.8 v 51.4 h -29.9 v -93.7 L 499.4 256.9 z M 605.1 220.2 H 635 v 24.3 h -29.9 V 220.2 z M 605.1 256.9 H 635 v 93.2 h -29.9 V 256.9 z M 658.2 325.8 v -44.6 h -12.4 v -24.3 h 12.4 v -29.4 H 687 v 29.4 h 16.9 v 24.3 H 687 v 38.4 c 0 7.3 4 9 10.2 9 h 6.8 v 21.5 c -5.4 1.1 -10.9 1.7 -16.4 1.7 C 670.6 351.8 658.2 346.1 658.2 325.8 L 658.2 325.8 z M 722.5 358 h 10.2 c 8.5 0 12.4 -3.4 12.4 -9.6 c 0 -4 -1.7 -9.6 -5.7 -19.2 l -27.7 -71.7 h 31.1 l 12.4 39.5 c 2.8 9 5.7 21.5 5.7 21.5 h 0.6 c 0 0 2.8 -12.4 5.6 -21.5 l 12.4 -39.5 h 29.9 l -32.2 94.3 c -7.3 22 -16.4 29.4 -35 29.4 h -19.2 L 722.5 358 z" stroke-linecap="round" />
</g>
		<g transform="matrix(1.16 0 0 1.16 -193.67 0.03)"  >
<g style=""   >
		<g transform="matrix(0.86 0 0 0.76 0 0)"  >
<path style="stroke: none; stroke-width: 1; stroke-dasharray: none; stroke-linecap: butt; stroke-dashoffset: 0; stroke-linejoin: miter; stroke-miterlimit: 4; fill: rgb(76,76,76); fill-rule: nonzero; opacity: 1;"  transform=" translate(-192.5, -292.5)" d="M 312.5 346.7 V 220.2 L 203 157 v 48.5 l 42.9 24.9 c 1.7 1.1 1.7 3.4 0 4 l -50.9 29.4 c -1.4 0.9 -3.1 0.9 -4.5 0 l -50.8 -29.4 c -1.1 -0.5 -1.6 -1.8 -1.1 -2.9 c 0.2 -0.5 0.6 -0.9 1.1 -1.1 l 42.9 -24.9 V 157 L 72.5 220.2 v 126.5 l 41.8 -24.3 v -49.7 c 0.2 -1.5 1.5 -2.5 3 -2.3 c 0.1 0 0.3 0 0.4 0.1 l 50.8 29.4 c 1.5 0.8 2.3 2.3 2.3 4 v 58.6 c -0.2 1.5 -1.5 2.5 -3 2.3 c -0.1 0 -0.3 0 -0.4 -0.1 l -42.9 -24.8 l -41.8 24.3 L 192.2 428 l 109.6 -63.2 L 260 340.5 l -42.9 24.9 c -1.7 1.1 -3.4 0 -3.4 -2.3 v -58.7 c 0 -1.6 0.9 -3.1 2.3 -4 l 50.8 -29.4 c 1.7 -1.1 3.4 0 3.4 2.3 V 323 L 312.5 346.7 z" stroke-linecap="round" />
</g>
		<g transform="matrix(0.86 0 0 0.76 51.25 24.01)"  >
<path style="stroke: none; stroke-width: 1; stroke-dasharray: none; stroke-linecap: butt; stroke-dashoffset: 0; stroke-linejoin: miter; stroke-miterlimit: 4; fill: rgb(0,0,0); fill-rule: nonzero; opacity: 1;"  transform=" translate(-252.1, -324.1)" d="M 192.2 428 l 109.6 -63.2 L 260 340.5 l -42.9 24.9 c -1.7 1.1 -3.4 0 -3.4 -2.3 v -58.7 c 0 -1.6 0.9 -3.1 2.3 -4 l 50.8 -29.4 c 1.7 -1.1 3.4 0 3.4 2.3 V 323 l 41.8 24.3 V 220.2 l -119.8 69.5 V 428 z" stroke-linecap="round" />
</g>
		<g transform="matrix(0.86 0 0 0.76 -0.22 -52.55)"  >
<path style="stroke: none; stroke-width: 1; stroke-dasharray: none; stroke-linecap: butt; stroke-dashoffset: 0; stroke-linejoin: miter; stroke-miterlimit: 4; fill: rgb(128,128,128); fill-rule: nonzero; opacity: 1;"  transform=" translate(-192.25, -223.35)" d="M 203 157 v 48.5 l 42.9 24.9 c 1.7 1.1 1.7 3.4 0 4 l -50.9 29.4 c -1.4 0.9 -3.1 0.9 -4.5 0 l -50.8 -29.4 c -1.1 -0.5 -1.6 -1.8 -1.1 -2.9 c 0.2 -0.5 0.6 -0.9 1.1 -1.1 l 42.9 -24.9 V 157 L 72.5 220.2 l 119.7 69.5 L 312 220.2 L 203 157 z" stroke-linecap="round" />
</g>
		<g transform="matrix(0.86 0 0 0.76 -51.47 24.01)"  >
<path style="stroke: none; stroke-width: 1; stroke-dasharray: none; stroke-linecap: butt; stroke-dashoffset: 0; stroke-linejoin: miter; stroke-miterlimit: 4; fill: rgb(76,76,76); fill-rule: nonzero; opacity: 1;"  transform=" translate(-132.65, -324.1)" d="M 167.9 365.4 L 125 340.5 l -41.8 24.3 L 192.8 428 V 289.7 L 72.5 220.2 v 126.5 l 41.8 -24.3 v -49.7 c 0.2 -1.5 1.5 -2.5 3 -2.3 c 0.1 0 0.3 0 0.4 0.1 l 50.8 29.4 c 1.5 0.8 2.3 2.3 2.3 4 v 58.6 C 171.3 364.8 169.6 366.5 167.9 365.4 z" stroke-linecap="round" />
</g>
</g>
</g>
</g>
</g>
</svg>