<?xml version="1.0" encoding="UTF-8"?>
<!DOCTYPE svg PUBLIC "-//W3C//DTD SVG 1.1//EN" "http://www.w3.org/Graphics/SVG/1.1/DTD/svg11.dtd">
<!-- Creator: CorelDRAW X7 -->
<svg xmlns="http://www.w3.org/2000/svg" xml:space="preserve" width="250px" height="350px" version="1.1" style="shape-rendering:geometricPrecision; text-rendering:geometricPrecision; image-rendering:optimizeQuality; fill-rule:evenodd; clip-rule:evenodd"
viewBox="0 0 46665 65330"
 xmlns:xlink="http://www.w3.org/1999/xlink">
 <defs>
  <style type="text/css">
   <![CDATA[
    .fil1 {fill:#0099DB}
    .fil2 {fill:#0AB2FA}
    .fil0 {fill:#363636}
   ]]>
  </style>
 </defs>
 <g id="Layer_x0020_1">
  <metadata id="CorelCorpID_0Corel-Layer"/>
  <g id="_2652182593232">
   <path class="fil0" d="M2222 0l4889 0c1222,0 2222,1000 2222,2222l0 4889c0,1222 1000,2222 2222,2222l14221 0c1223,0 2223,1000 2223,2222l0 4889c0,1222 1000,2222 2222,2222l4888 0c1223,0 2223,-1000 2223,-2222l0 -4889c0,-1222 1000,-2222 2222,-2222l4888 0c1223,0 2223,1000 2223,2222l0 14221c0,1223 -1000,2223 -2223,2223l-23554 0c-1222,0 -2222,1000 -2222,2222l0 4888c0,1223 1000,2223 2222,2223l23554 0c1223,0 2223,1000 2223,2222l0 4888c0,1222 -1001,2223 -2223,2223l-4888 0c-1222,0 -2222,1000 -2222,2222l0 4888c0,1222 1000,2222 2222,2222l4888 0c1223,0 2223,1001 2223,2223l0 4888c0,1222 -1000,2222 -2223,2222l-14221 0c-1222,0 -2222,-1000 -2222,-2222l0 -4888c0,-1223 -1000,-2223 -2223,-2223l-23554 0c-1222,0 -2222,-1000 -2222,-2222l0 -23554c0,-1222 1000,-2222 2222,-2222l4889 0c1222,0 2222,-1000 2222,-2223l0 -4888c0,-1222 -1000,-2222 -2222,-2222l-4889 0c-1222,0 -2222,-1000 -2222,-2222l0 -14222c0,-1222 1000,-2222 2222,-2222z"/>
   <g>
    <rect class="fil1" x="40859" y="40859" width="2279" height="2279" rx="1026" ry="1026"/>
    <path class="fil2" d="M42836 42836c186,-186 301,-442 301,-724l0 -227c0,-565 -461,-1026 -1025,-1026l-228 0c-282,0 -538,115 -724,301l1676 1676z"/>
   </g>
   <g>
    <rect class="fil1" x="40859" y="59525" width="2279" height="2279" rx="1026" ry="1026"/>
    <path class="fil2" d="M42836 61502c186,-186 301,-442 301,-725l0 -227c0,-564 -461,-1025 -1025,-1025l-228 0c-282,0 -538,115 -724,301l1676 1676z"/>
   </g>
   <g>
    <rect class="fil1" x="3527" y="50192" width="2279" height="2279" rx="1026" ry="1026"/>
    <path class="fil2" d="M5504 52169c186,-186 302,-442 302,-724l0 -228c0,-564 -462,-1025 -1026,-1025l-227 0c-282,0 -539,115 -725,301l1676 1676z"/>
   </g>
   <g>
    <rect class="fil1" x="22193" y="12860" width="2279" height="2279" rx="1026" ry="1026"/>
    <path class="fil2" d="M24170 14837c186,-185 302,-442 302,-724l0 -227c0,-564 -462,-1026 -1026,-1026l-227 0c-282,0 -539,115 -725,301l1676 1676z"/>
   </g>
   <g>
    <rect class="fil1" x="40859" y="12860" width="2279" height="2279" rx="1026" ry="1026"/>
    <path class="fil2" d="M42836 14837c186,-185 301,-442 301,-724l0 -227c0,-564 -461,-1026 -1025,-1026l-228 0c-282,0 -538,115 -724,301l1676 1676z"/>
   </g>
   <g>
    <rect class="fil1" x="3527" y="3485" width="2279" height="2279" rx="1026" ry="1026"/>
    <path class="fil2" d="M5504 5463c186,-186 302,-443 302,-725l0 -227c0,-564 -462,-1026 -1026,-1026l-227 0c-282,0 -539,116 -725,302l1676 1676z"/>
   </g>
  </g>
 </g>
</svg>
